<svg xmlns="http://www.w3.org/2000/svg" viewBox="0 0 64 64" role="img" aria-labelledby="title desc">
  <title id="title">swingsplits baseball icon</title>
  <desc id="desc">Minimal baseball icon for the swingsplits app</desc>
  <defs>
    <radialGradient id="ballGradient" cx="50%" cy="35%" r="60%">
      <stop offset="0%" stop-color="#ffffff" />
      <stop offset="60%" stop-color="#f3f4f6" />
      <stop offset="100%" stop-color="#d1d5db" />
    </radialGradient>
  </defs>

  <circle cx="32" cy="32" r="26" fill="url(#ballGradient)" />
  <circle
    cx="32"
    cy="32"
    r="26"
    fill="none"
    stroke="#9ca3af"
    stroke-width="2"
  />

  <path
    d="M16 16c4 4 6 9 6 16s-2 12-6 16"
    fill="none"
    stroke="#f97373"
    stroke-width="2"
    stroke-linecap="round"
  />
  <path
    d="M48 16c-4 4-6 9-6 16s2 12 6 16"
    fill="none"
    stroke="#f97373"
    stroke-width="2"
    stroke-linecap="round"
  />

  <path
    d="M19 20l3-1M20 24l3-1M21 28l3-1M21 32l3-1M21 36l3-1M20 40l3-1M19 44l3-1"
    fill="none"
    stroke="#f97373"
    stroke-width="1.4"
    stroke-linecap="round"
  />

  <path
    d="M45 19l-3-1M44 23l-3-1M43 27l-3-1M43 31l-3-1M43 35l-3-1M44 39l-3-1M45 43l-3-1"
    fill="none"
    stroke="#f97373"
    stroke-width="1.4"
    stroke-linecap="round"
  />

  <circle
    cx="26"
    cy="24"
    r="8"
    fill="none"
    stroke="rgba(255,255,255,0.35)"
    stroke-width="2"
  />
</svg>
